<?xml version="1.0" encoding="utf-8"?>
<!-- Generator: Adobe Illustrator 16.0.3, SVG Export Plug-In . SVG Version: 6.00 Build 0)  -->
<!DOCTYPE svg PUBLIC "-//W3C//DTD SVG 1.1//EN" "http://www.w3.org/Graphics/SVG/1.1/DTD/svg11.dtd">
<svg version="1.1" id="Layer_1" xmlns="http://www.w3.org/2000/svg" xmlns:xlink="http://www.w3.org/1999/xlink" x="0px" y="0px"
	 width="169px" height="99px" viewBox="0 0 169 99" enable-background="new 0 0 169 99" xml:space="preserve">
<g>
	<path fill="#17A0DB" d="M10.617,63.713c-3.717,0-7.022-1.18-9.383-3.009c-0.826-0.648-1.181-1.532-1.181-2.298
		c0-1.18,0.944-1.947,2.125-1.947c0.944,0,1.535,0.354,2.184,0.825c1.594,1.18,3.836,2.3,6.669,2.3c3.186,0,4.897-1.178,4.897-3.007
		c0-2.005-1.652-2.771-5.783-3.892c-7.258-1.947-9.914-4.424-9.914-8.668c0-4.424,4.072-7.313,10.445-7.313
		c2.419,0,5.134,0.591,7.317,1.651c1.593,0.766,2.714,1.71,2.714,2.89c0,1.062-0.589,2.064-2.124,2.064
		c-0.768,0-1.535-0.355-2.42-0.827c-1.651-0.884-3.481-1.356-5.605-1.356c-2.95,0-4.957,0.767-4.957,2.831
		c0,2.005,1.771,2.653,6.02,3.891c6.373,1.828,9.678,3.538,9.678,8.316C21.299,60.528,17.64,63.713,10.617,63.713z"/>
	<path fill="#17A0DB" d="M65.651,63.713c-8.202,0-13.514-6.074-13.514-13.505c0-7.43,5.312-13.504,13.514-13.504
		c8.204,0,13.515,6.074,13.515,13.504C79.166,57.639,73.855,63.713,65.651,63.713z M65.651,41.422c-5.193,0-7.966,4.009-7.966,8.786
		c0,4.777,2.773,8.786,7.966,8.786c5.194,0,7.968-4.009,7.968-8.786C73.619,45.432,70.845,41.422,65.651,41.422z"/>
	<g>
		<path fill="#17A0DB" d="M81.556,59.468c-3.294,5.32-9.185,8.866-15.907,8.866c-7.609,0-13.817-4.557-16.804-11.073
			c-0.033-0.072-0.071-0.142-0.104-0.213c-0.379-0.714-1.166-1.237-2.279-1.237c-1.004,0-1.653,0.825-2.36,1.416
			c-0.27,0.233-0.558,0.441-0.855,0.633c-1.196,0.771-2.602,1.194-4.162,1.194c-5.488,0-8.322-4.128-8.322-8.846
			c0-4.717,2.833-8.845,8.322-8.845c1.947,0,3.659,0.648,5.017,1.828c0.707,0.591,1.356,1.416,2.36,1.416
			c1.593,0,2.537-1.061,2.537-2.24c0-0.885-0.354-1.416-0.826-1.946c-1.771-2.123-5.429-3.716-9.146-3.716
			c-8.676,0-13.81,5.956-13.81,13.504c0,7.549,5.133,13.505,13.81,13.505c2.27,0,4.513-0.599,6.322-1.545
			c2.894,4.679,7.36,8.281,12.663,10.072v24.486c0,1.532,1.122,2.771,2.773,2.771c1.653,0,2.773-1.238,2.773-2.771V84.682h4.124
			v12.045c0,1.532,1.122,2.771,2.773,2.771c1.652,0,2.773-1.238,2.773-2.771V72.252c4.695-1.572,8.738-4.563,11.62-8.463
			C83.532,62.534,82.427,61.077,81.556,59.468z"/>
	</g>
</g>
<g>
	<path fill="#7AC144" d="M97.718,63.713c-8.203,0-13.515-6.074-13.515-13.505c0-7.43,5.312-13.504,13.515-13.504
		c8.202,0,13.513,6.074,13.513,13.504C111.23,57.639,105.92,63.713,97.718,63.713z M97.718,41.422c-5.194,0-7.968,4.009-7.968,8.786
		c0,4.777,2.773,8.786,7.968,8.786c5.192,0,7.967-4.009,7.967-8.786C105.685,45.432,102.91,41.422,97.718,41.422z"/>
	<path fill="#7AC144" d="M127.039,37.412h-5.075v-7.725c0-1.534-1.122-2.771-2.773-2.771c-1.652,0-2.773,1.238-2.773,2.771v5.868
		c-2.835-3.574-6.675-6.317-11.093-7.803V3.269c0-1.533-1.122-2.771-2.773-2.771c-1.652,0-2.773,1.238-2.773,2.771v12.046h-4.123
		V3.269c0-1.533-1.122-2.771-2.773-2.771c-1.652,0-2.774,1.238-2.774,2.771V27.75c-4.772,1.604-8.869,4.675-11.755,8.676
		c1.337,1.229,2.468,2.659,3.363,4.245c3.277-5.402,9.216-9.012,15.998-9.012c7.325,0,13.36,4.218,16.467,10.345l2.233,0.001
		c0,0,0.002,8.397,0.005,8.43v10.269c0,1.535,1.121,2.772,2.773,2.772c1.651,0,2.773-1.237,2.773-2.772V42.011h5.075
		c1.299,0,2.302-1.002,2.302-2.298C129.341,38.414,128.338,37.412,127.039,37.412z"/>
	<path fill="#7AC144" d="M135.063,23.259c-1.651,0-2.774,1.239-2.774,2.772v34.673c0,1.535,1.123,2.772,2.774,2.772
		c1.652,0,2.773-1.237,2.773-2.772V26.031C137.837,24.499,136.716,23.259,135.063,23.259z"/>
	<path fill="#7AC144" d="M169.054,50.268c0-7.549-4.839-13.563-12.275-13.563c-7.611,0-13.218,5.779-13.218,13.504
		c0,7.371,4.662,13.505,13.455,13.505c4.248,0,8.262-1.71,10.503-4.305c0.414-0.472,0.709-1.002,0.709-1.593
		c0-1.415-1.062-2.3-2.302-2.3c-0.708,0-1.356,0.413-1.829,0.885c-1.947,1.828-3.777,2.89-6.847,2.89
		c-4.896,0-7.671-3.067-7.966-7.136h17.646C168.521,52.154,169.054,51.211,169.054,50.268z M149.402,47.673
		c0.531-3.656,3.305-6.546,7.376-6.546c4.014,0,6.669,3.007,7.141,6.546H149.402z"/>
</g>
</svg>
